<?xml version="1.0" standalone="no"?>
<!DOCTYPE svg PUBLIC "-//W3C//DTD SVG 20010904//EN"
 "http://www.w3.org/TR/2001/REC-SVG-20010904/DTD/svg10.dtd">
<svg version="1.0" xmlns="http://www.w3.org/2000/svg"
 width="259.000000pt" height="194.000000pt" viewBox="0 0 259.000000 194.000000"
 preserveAspectRatio="xMidYMid meet">
<metadata>
Created by potrace 1.10, written by Peter Selinger 2001-2011
</metadata>
<g transform="translate(0.000000,194.000000) scale(0.100000,-0.100000)"
fill="#000000" stroke="none">
<path d="M834 1883 c-186 -118 -389 -268 -529 -389 -50 -44 -99 -86 -108 -94
-10 -8 -58 -60 -107 -114 -64 -71 -90 -107 -90 -125 0 -26 1 -25 27 9 46 60
213 228 308 309 178 154 575 429 649 450 30 9 29 9 -15 10 -39 1 -58 -7 -135
-56z"/>
<path d="M953 1854 c-70 -48 -141 -97 -156 -110 -16 -13 -35 -24 -42 -24 -8 0
-18 -7 -23 -15 -4 -9 -53 -52 -108 -96 -54 -44 -148 -128 -208 -187 -182 -180
-253 -290 -266 -417 -7 -70 -7 -70 24 -98 17 -15 56 -35 88 -44 68 -21 92 -47
44 -49 -170 -7 -227 -7 -263 0 -35 6 -43 5 -43 -7 0 -8 13 -17 31 -21 48 -9
200 -7 258 4 60 11 85 -1 111 -54 16 -34 81 -76 118 -76 12 0 22 -2 22 -5 0
-5 -36 -86 -52 -118 -10 -21 -1 -84 17 -112 38 -61 61 -74 149 -87 112 -16
241 -2 429 46 l137 36 35 -33 c46 -43 141 -100 155 -92 6 4 4 12 -7 23 -17 17
-20 18 -49 21 -8 0 -12 5 -9 11 3 5 -1 10 -10 10 -10 0 -13 5 -9 12 5 7 2 9
-9 5 -11 -4 -14 -2 -10 9 5 14 -12 20 -20 7 -2 -5 -2 -3 -1 4 4 16 -26 39 -47
35 -9 -2 -20 2 -24 8 -3 5 -1 10 4 10 6 0 11 5 11 10 0 6 -10 10 -21 10 -17 0
-19 3 -10 14 9 11 9 16 0 21 -6 4 -15 2 -19 -5 -7 -12 -21 16 -24 50 -1 8 -7
14 -13 13 -7 -2 -15 6 -18 17 -4 11 -10 18 -14 15 -5 -2 -6 7 -3 20 2 14 0 25
-6 25 -5 0 -9 18 -8 40 2 46 -1 50 -14 18 l-9 -23 0 22 c-1 28 -17 38 -29 18
-10 -18 -43 -28 -187 -54 -55 -11 -86 -19 -70 -20 26 -1 162 24 235 43 23 6
28 2 48 -40 13 -25 21 -49 18 -51 -13 -14 -144 -34 -251 -39 -139 -7 -189 2
-240 47 -40 36 -38 51 5 39 17 -5 30 -5 30 -1 0 5 37 11 83 14 89 6 306 53
322 69 7 7 2 9 -15 5 -215 -45 -279 -57 -354 -63 -84 -6 -88 -6 -77 12 24 41
50 64 75 64 31 0 229 42 301 64 27 8 50 14 50 13 1 -1 6 -19 11 -40 11 -48 28
-53 32 -9 2 22 -2 34 -12 38 -9 3 -13 10 -10 15 3 5 0 9 -6 9 -6 0 -4 10 5 24
16 23 11 54 -9 68 -8 5 -7 8 1 8 7 0 12 11 11 25 -1 14 -8 25 -16 25 -7 0 -11
4 -7 9 3 6 -34 -3 -81 -19 -48 -17 -90 -28 -92 -25 -3 3 0 5 7 5 7 0 9 5 5 12
-4 7 -3 8 5 4 13 -9 151 43 151 56 0 5 5 6 12 2 7 -4 8 -3 4 4 -5 8 0 12 13
12 25 0 25 1 6 46 -8 19 -10 32 -5 29 9 -6 14 8 11 28 0 4 7 7 18 7 23 0 65
88 50 106 -12 14 34 36 58 27 15 -6 16 -5 3 9 -8 8 -21 13 -27 11 -7 -3 -13 0
-13 6 0 6 5 10 11 9 6 -2 13 6 15 16 1 10 6 22 11 25 4 3 17 16 27 29 20 23
20 23 0 16 -15 -5 -15 -3 4 11 22 16 24 16 45 -2 14 -11 17 -12 10 -2 -10 12
-10 18 0 29 10 12 9 12 -3 5 -9 -6 -4 0 10 12 14 13 30 23 37 23 7 0 17 9 23
20 6 11 15 20 20 20 5 0 51 28 102 63 51 34 171 108 265 162 160 93 191 115
161 115 -16 0 -262 -144 -423 -247 -71 -46 -138 -83 -148 -83 -11 0 -21 -8
-24 -17 -3 -10 -64 -62 -137 -115 -72 -54 -164 -127 -205 -164 -40 -36 -84
-70 -97 -74 -13 -5 -24 -16 -24 -23 0 -7 -14 -26 -31 -43 -39 -36 -144 -156
-156 -179 -6 -9 -40 -25 -78 -36 -85 -23 -95 -14 -57 54 51 95 270 337 304
337 10 0 18 6 18 14 0 30 290 225 575 388 190 108 274 150 288 141 6 -3 7 -1
3 5 -4 7 3 14 19 18 24 6 36 24 15 24 -10 0 -201 -97 -289 -147 -51 -29 -321
-194 -361 -220 -14 -9 -20 -12 -15 -7 22 23 97 76 240 171 150 99 212 137 380
232 49 28 82 51 73 51 -25 0 -288 -154 -463 -271 -148 -100 -304 -217 -419
-314 -26 -22 -56 -44 -67 -49 -10 -5 -19 -12 -19 -15 0 -3 -42 -49 -93 -101
-97 -100 -200 -229 -211 -267 -4 -11 -13 -27 -22 -33 -10 -9 -11 -16 -4 -25 8
-9 4 -11 -15 -7 -28 5 -28 17 5 82 74 146 363 428 635 619 138 97 352 235 380
245 17 6 35 16 40 23 6 7 51 35 100 64 62 35 80 49 60 46 -17 -3 -63 -24 -101
-46 -39 -23 -78 -41 -86 -41 -9 0 -18 -6 -21 -14 -3 -7 -34 -31 -69 -52 -448
-269 -905 -683 -973 -881 -11 -32 -18 -39 -44 -41 -29 -3 -31 -1 -31 30 1 90
90 228 255 393 140 141 402 355 434 355 6 0 11 5 11 10 0 10 257 183 381 257
49 29 51 32 26 33 -33 0 -31 1 -241 -137 -93 -62 -176 -113 -183 -113 -8 0
-16 -7 -19 -15 -3 -8 -40 -40 -81 -71 -353 -266 -603 -556 -603 -699 0 -41
-13 -44 -69 -15 -53 27 -59 65 -20 141 106 212 471 533 933 822 89 56 131 87
116 87 -25 0 -93 -39 -265 -154 -300 -199 -562 -420 -698 -588 -73 -91 -127
-181 -127 -213 0 -9 -4 -14 -9 -10 -15 9 -1 75 30 140 41 87 112 175 240 300
111 108 297 265 315 265 5 0 20 11 33 25 23 25 303 217 331 228 9 3 4 6 -12 6
-18 1 -69 -27 -155 -85z m201 -500 c-19 -20 -51 -71 -72 -115 -28 -60 -43 -81
-64 -88 -16 -6 -28 -14 -28 -19 0 -5 -43 -46 -95 -91 -71 -61 -112 -88 -162
-106 -36 -14 -68 -24 -69 -22 -8 8 112 140 207 227 117 109 301 259 310 254 4
-2 -9 -20 -27 -40z m-129 -271 c-2 -10 -4 -23 -4 -28 -1 -6 -13 -16 -28 -21
-100 -40 -136 -52 -119 -41 10 6 44 33 75 59 60 50 81 59 76 31z m-15 -172 l0
-69 -32 -11 c-54 -17 -152 -40 -227 -55 -64 -12 -71 -11 -71 3 0 9 26 43 59
75 52 52 69 61 157 91 55 18 102 34 107 34 4 1 7 -30 7 -68z m-280 -19 c0 -14
-75 -80 -95 -84 -13 -2 -21 -12 -23 -31 -2 -19 -9 -27 -23 -27 -25 0 -24 5 9
64 28 50 34 56 87 74 39 13 45 14 45 4z m-162 -89 c-23 -50 -23 -50 -63 -46
-50 6 -103 22 -110 33 -7 12 29 31 68 36 18 2 52 10 77 18 25 7 46 13 48 11 1
-1 -8 -24 -20 -52z m-143 -51 c6 -4 19 -20 28 -35 18 -28 18 -28 -1 -18 -10 6
-27 22 -36 36 -16 24 -12 32 9 17z m165 -21 c-1 -8 -26 -41 -32 -41 -2 0 -3
13 0 29 3 20 8 28 18 24 8 -3 14 -8 14 -12z m-50 -26 c0 -42 -9 -43 -49 -9
-41 34 -39 44 9 44 39 0 40 -1 40 -35z m89 -150 c68 -34 271 -30 420 9 49 13
52 12 63 -8 6 -11 28 -42 49 -68 22 -26 36 -49 32 -51 -24 -15 -264 -67 -355
-77 -153 -18 -265 6 -303 64 -15 23 -16 108 -1 123 3 3 6 16 6 28 0 32 11 37
34 16 12 -10 36 -26 55 -36z"/>
<path d="M2025 1771 c-77 -38 -164 -83 -193 -100 -45 -26 -63 -31 -120 -31
-81 0 -186 -24 -218 -49 l-23 -18 27 -12 c24 -10 25 -10 9 3 -14 11 -15 16 -5
22 25 15 76 15 92 -2 15 -14 16 -14 16 1 0 12 6 15 23 11 12 -3 16 -3 10 0
-26 12 -11 20 36 21 46 1 48 0 32 -17 -9 -9 -19 -15 -23 -13 -4 2 -27 -9 -50
-24 -24 -15 -64 -38 -90 -51 -45 -22 -62 -42 -36 -42 6 0 9 -3 6 -6 -4 -3 -22
-1 -42 4 -21 6 -36 7 -36 1 0 -5 7 -9 16 -9 14 0 14 -3 4 -15 -24 -29 15 -16
96 33 44 26 92 53 107 61 14 8 24 19 20 24 -4 6 -1 7 6 3 7 -5 20 -2 29 6 9 8
35 24 57 35 322 161 424 216 420 224 -11 16 -27 10 -170 -60z m-425 -256 c0
-9 -62 -36 -73 -32 -7 3 4 12 23 20 37 17 50 20 50 12z"/>
<path d="M1852 1619 c2 -7 24 -19 47 -27 27 -9 39 -17 31 -22 -6 -4 3 -8 22
-8 58 -1 68 -3 68 -11 0 -5 13 -14 28 -20 16 -7 34 -20 41 -30 9 -11 22 -17
35 -14 15 3 17 2 8 -5 -11 -7 -10 -10 3 -16 9 -3 22 -3 27 1 6 3 8 2 5 -4 -4
-6 5 -15 19 -22 19 -8 24 -16 20 -34 -3 -12 -3 -17 0 -10 8 18 34 3 34 -20 0
-11 3 -17 7 -14 8 8 33 -11 33 -25 0 -6 -8 -4 -17 3 -16 13 -17 12 -4 -3 7
-10 18 -15 24 -11 6 4 8 0 4 -10 -4 -10 -1 -17 6 -17 7 0 18 -15 25 -32 7 -18
18 -40 23 -48 5 -8 12 -22 16 -30 4 -8 13 -21 20 -28 6 -7 10 -19 7 -27 -4 -8
0 -17 8 -20 10 -4 14 -23 13 -68 -1 -34 3 -65 9 -69 6 -4 5 -12 -3 -22 -8 -9
-10 -23 -6 -33 5 -10 7 -24 6 -30 -3 -19 19 -16 26 3 3 9 1 55 -5 102 -5 48
-9 88 -7 90 2 2 39 4 84 5 62 2 81 5 81 16 0 11 -16 13 -89 7 -85 -6 -89 -6
-94 15 -6 21 -4 21 89 17 59 -2 90 0 85 5 -6 6 -49 10 -96 9 l-86 0 -28 63
c-81 177 -222 305 -413 374 -79 28 -111 34 -106 20z"/>
<path d="M1407 1424 c-32 -17 -33 -20 -7 -27 13 -3 18 -1 13 6 -4 6 0 8 10 4
19 -7 29 4 19 20 -5 8 -15 7 -35 -3z"/>
<path d="M1269 1256 c10 -12 8 -17 -7 -25 -29 -15 -35 -41 -16 -63 22 -23 13
-32 -34 -34 -54 -2 -55 -3 -48 -21 4 -9 1 -20 -6 -25 -9 -5 -10 -11 -3 -15 6
-5 12 -24 14 -43 6 -80 16 -105 41 -108 23 -2 24 -1 8 11 -14 11 -18 29 -18
76 0 39 -4 60 -10 56 -5 -3 -10 2 -10 13 0 16 6 19 34 16 28 -2 34 1 29 14 -4
15 -3 15 6 2 16 -22 13 -40 -5 -40 -13 0 -15 -13 -14 -72 2 -97 2 -94 -17
-113 -14 -14 -14 -18 -2 -26 8 -5 9 -9 3 -9 -13 0 -17 -100 -5 -120 12 -17
129 -23 149 -7 9 7 20 6 36 -3 13 -7 46 -11 75 -9 28 2 51 0 51 -5 0 -4 18 -6
40 -4 22 2 40 -1 40 -5 0 -5 6 -4 14 2 7 6 38 11 67 10 30 -1 71 1 91 4 30 5
38 3 43 -12 3 -11 16 -21 28 -24 12 -2 31 -8 42 -12 16 -5 17 -5 5 4 -13 9
-13 12 -1 20 7 5 10 14 7 20 -4 6 0 11 8 11 9 0 16 5 16 11 0 5 -4 7 -10 4
-12 -8 -13 1 -1 23 14 27 23 92 13 92 -5 0 -15 -21 -22 -47 -33 -127 -30 -121
-55 -109 -23 10 -23 11 -5 28 16 15 17 21 5 60 -17 59 -39 57 -43 -4 -2 -34
-7 -48 -18 -48 -11 0 -14 14 -14 60 l0 60 45 0 c42 0 45 -2 45 -26 0 -14 4
-23 10 -19 6 3 10 15 10 26 0 10 5 19 11 19 5 0 8 3 6 8 -9 14 13 52 30 52 15
0 16 2 3 11 -11 8 -9 9 10 3 14 -4 31 -9 38 -12 7 -2 12 -1 11 4 -1 5 -1 39 0
75 l1 66 34 1 34 1 4 -59 c2 -43 -1 -60 -9 -60 -9 0 -13 16 -13 45 0 25 -4 45
-9 45 -18 0 -21 -18 -12 -59 7 -31 6 -38 -4 -35 -18 7 -26 -9 -13 -26 8 -12 9
-12 4 3 -7 21 7 22 28 2 9 -9 17 -11 21 -5 3 5 1 10 -6 10 -7 0 -9 3 -6 6 4 4
18 -1 31 -10 14 -9 29 -16 33 -16 4 0 1 5 -7 10 -13 8 -12 10 3 10 9 0 17 -5
17 -11 0 -8 4 -8 15 1 8 6 18 9 24 6 5 -3 20 3 32 15 23 20 18 21 -25 3 -7 -3
-21 2 -30 11 -23 23 -20 38 5 25 29 -16 38 -3 11 16 -32 22 -27 48 15 80 23
17 32 29 24 32 -7 2 -16 0 -20 -6 -8 -14 -40 -19 -40 -7 0 17 -45 22 -57 7 -6
-8 -27 -15 -47 -16 -35 -1 -36 0 -31 28 4 26 3 28 -11 16 -9 -7 -13 -21 -10
-31 5 -14 1 -19 -14 -19 -12 0 -21 6 -21 13 0 8 -4 7 -10 -3 -6 -10 -10 -11
-10 -2 0 6 -3 11 -7 11 -28 -5 -64 3 -78 17 -8 9 -22 13 -30 10 -10 -4 -14 1
-13 17 1 16 8 22 25 22 16 0 21 -5 18 -14 -3 -7 6 -3 20 10 13 13 25 34 25 46
0 31 57 30 63 -1 4 -20 4 -20 6 2 0 12 5 22 10 22 13 0 11 -59 -2 -67 -6 -3
-7 -1 -4 4 7 11 -38 24 -49 14 -3 -3 -11 -6 -17 -6 -7 -1 -11 -6 -9 -13 1 -7
-3 -12 -10 -12 -6 0 -8 -3 -5 -7 4 -3 16 2 28 12 12 11 23 15 27 10 4 -6 22
-11 40 -11 18 -1 30 1 27 4 -2 3 4 11 15 19 27 19 25 39 -5 59 -22 14 -60 17
-250 19 -173 1 -225 -2 -225 -11 0 -7 -5 -14 -11 -16 -9 -3 -9 -12 -2 -33 8
-25 15 -29 37 -27 18 2 25 -1 21 -7 -3 -6 -2 -11 4 -11 5 0 11 6 14 13 3 9 7
9 20 -1 13 -11 19 -11 38 0 14 9 23 9 25 3 5 -13 74 -7 74 6 0 5 -4 9 -9 9 -5
0 -12 10 -14 23 -4 22 -4 22 -6 0 -1 -17 -7 -21 -31 -21 -24 1 -30 5 -30 23 0
19 6 22 48 24 46 1 48 0 47 -25 0 -15 5 -29 11 -31 7 -2 9 8 6 27 -4 28 -2 30
24 28 30 -2 44 -13 44 -35 0 -20 -30 -15 -31 5 0 12 -3 11 -10 -6 -5 -13 -7
-28 -4 -32 3 -5 -2 -13 -10 -18 -27 -14 -7 -42 30 -42 25 0 34 -5 38 -21 8
-32 -9 -69 -33 -69 -14 0 -20 -7 -20 -24 0 -13 6 -27 13 -29 6 -3 0 -6 -15 -6
l-28 -1 0 87 c0 86 0 86 -20 68 -12 -11 -18 -25 -15 -34 3 -8 2 -12 -2 -7 -4
4 -13 -9 -19 -31 -6 -22 -20 -43 -33 -49 -21 -11 -21 -11 9 -17 38 -8 42 -44
6 -53 -42 -10 -61 -1 -61 29 -1 16 2 30 7 33 4 3 2 15 -3 28 -17 37 5 70 42
62 30 -6 37 2 18 21 -6 6 -25 7 -49 3 -26 -5 -41 -3 -43 4 -3 8 -9 7 -20 -2
-8 -7 -21 -12 -29 -11 -31 4 -38 -1 -33 -23 12 -46 11 -108 -1 -108 -8 0 -14
25 -16 73 -4 80 -1 100 14 91 6 -4 9 -1 6 6 -7 22 -28 23 -28 2 0 -26 -16 -30
-113 -30 -64 -1 -82 3 -98 19 -36 36 -21 51 53 55 26 1 51 -2 54 -7 3 -5 13
-5 23 1 12 6 22 5 28 -1 8 -8 13 -7 17 0 13 20 23 11 18 -14 -2 -14 -8 -25
-13 -25 -5 0 -9 -5 -9 -11 0 -8 5 -8 15 1 8 7 15 21 15 31 0 11 5 19 10 19 6
0 10 5 10 10 0 6 -11 10 -25 10 -20 0 -25 5 -25 25 0 14 5 25 10 25 6 0 10 -5
10 -11 0 -6 7 -4 15 5 8 8 15 19 15 25 0 6 -7 11 -15 11 -8 0 -15 -5 -15 -11
0 -8 -4 -8 -12 -2 -12 8 -91 16 -155 15 -13 0 -23 4 -23 9 0 5 -5 9 -11 9 -8
0 -8 -4 0 -14z m22 -53 c1 -17 2 -17 6 0 3 10 14 17 30 17 19 0 24 -4 19 -16
-3 -9 -6 -21 -7 -27 -1 -7 -5 -1 -9 13 -7 23 -8 23 -9 3 -1 -17 -7 -21 -31
-21 -25 1 -30 5 -30 25 0 27 29 33 31 6z m149 -6 c0 -18 -6 -22 -30 -23 -25
-1 -30 2 -30 21 0 18 6 22 30 23 24 1 30 -3 30 -21z m170 -4 c0 -27 -20 -32
-21 -5 0 14 -2 14 -9 -3 -9 -20 -9 -20 -10 0 -1 15 -3 17 -8 5 -11 -25 -32
-22 -32 4 0 21 4 24 40 23 35 -1 40 -4 40 -24z m250 8 c0 -11 -4 -23 -10 -26
-5 -3 -10 -2 -10 4 0 5 -3 16 -6 25 -4 11 -1 16 10 16 9 0 16 -8 16 -19z m255
-138 c3 -15 2 -29 -3 -31 -6 -2 -6 -21 -1 -49 10 -52 9 -56 -14 -48 -15 6 -26
82 -19 133 5 31 28 28 37 -5z m-835 -53 c0 -27 5 -50 10 -50 6 0 10 23 10 50
0 38 4 50 15 50 12 0 15 -13 15 -60 l0 -60 -35 0 -35 0 0 60 c0 33 4 60 10 60
6 0 10 -22 10 -50z m120 34 c0 -8 -7 -14 -15 -14 -11 0 -15 -12 -15 -45 0 -31
-4 -45 -13 -45 -10 0 -14 17 -15 58 0 57 0 57 29 58 19 1 29 -3 29 -12z m78
-46 c2 -43 0 -58 -10 -58 -9 0 -12 13 -10 45 3 33 0 45 -9 45 -10 0 -14 -15
-12 -55 1 -47 -1 -54 -13 -44 -13 11 -21 109 -9 120 2 3 17 5 32 4 27 0 28 -2
31 -57z m130 0 c2 -36 -1 -58 -8 -58 -5 0 -10 20 -10 45 0 25 -4 45 -10 45
-11 0 -14 -19 -11 -61 1 -16 -4 -29 -14 -32 -12 -5 -15 4 -15 56 l0 62 33 0
32 0 3 -57z m306 56 c24 -9 23 -111 -1 -116 -42 -9 -53 2 -53 56 0 66 10 77
54 60z m56 -54 c0 -41 -4 -60 -12 -60 -9 0 -12 17 -11 57 2 70 1 63 13 63 6 0
10 -27 10 -60z m-235 -20 c-4 -12 -2 -20 5 -20 6 0 10 -6 8 -12 -5 -13 14 -38
28 -38 16 0 44 34 44 54 0 19 1 19 17 -4 9 -14 23 -31 30 -38 7 -7 13 -23 13
-35 0 -19 -6 -22 -40 -23 -23 0 -36 2 -30 6 17 10 -16 21 -37 13 -32 -12 -41
-27 -26 -41 16 -16 17 -84 1 -100 -18 -18 -46 -14 -58 7 -16 30 -12 78 8 93 9
7 26 24 37 36 l19 23 -28 -11 c-35 -13 -45 -6 -17 12 21 13 30 58 11 58 -7 0
-7 6 0 20 6 11 13 20 16 20 3 0 2 -9 -1 -20z m-356 -67 c-12 -15 -12 -16 4
-10 20 7 21 -2 5 -38 l-11 -25 -11 22 c-6 12 -17 23 -25 26 -9 3 -11 0 -6 -8
6 -9 3 -9 -13 -1 -28 15 -32 14 -33 -6 0 -14 -2 -13 -9 5 -5 12 -10 26 -10 30
0 10 21 10 41 1 9 -5 20 -4 25 0 5 5 18 11 29 14 11 3 22 5 24 6 2 0 -3 -7
-10 -16z m210 7 c-1 -3 3 -14 9 -25 9 -18 7 -21 -14 -23 -15 -1 -22 2 -19 8 3
6 2 10 -2 10 -5 0 -18 7 -29 15 -18 14 -18 14 4 15 13 0 20 -4 17 -10 -3 -5 1
-10 10 -10 12 0 15 5 11 16 -3 9 -1 14 5 12 6 -2 9 -6 8 -8z m-344 -20 c-3 -5
0 -10 7 -10 10 0 12 -19 10 -82 -4 -90 -5 -93 -21 -83 -12 7 -16 167 -4 178
10 10 15 8 8 -3z m195 -40 c0 -20 5 -30 15 -30 10 0 15 10 15 30 0 20 5 30 15
30 19 0 17 -151 -2 -158 -9 -2 -13 8 -13 32 0 25 -4 36 -15 36 -11 0 -15 -11
-15 -39 0 -32 -3 -38 -17 -35 -16 4 -18 16 -15 84 3 61 7 80 18 80 9 0 14 -11
14 -30z m220 6 c0 -8 6 -17 13 -20 10 -5 10 -7 0 -12 -15 -7 -18 -74 -3 -74 6
0 10 -7 10 -15 0 -8 -9 -15 -20 -15 -21 0 -34 32 -29 66 2 11 0 24 -3 30 -10
16 2 54 18 54 8 0 14 -6 14 -14z m-302 -78 c2 -47 0 -58 -13 -58 -11 0 -15 12
-15 50 0 28 -4 50 -10 50 -5 0 -10 -22 -10 -50 0 -38 -4 -50 -15 -50 -12 0
-15 13 -15 61 l0 60 38 -3 37 -3 3 -57z m182 1 c0 -44 -3 -60 -12 -57 -19 7
-21 118 -2 118 11 0 14 -15 14 -61z m71 44 c13 -15 12 -16 -8 -11 -28 8 -30
-8 -3 -24 11 -7 20 -23 20 -35 0 -41 -69 -41 -70 0 0 11 18 9 25 -3 4 -6 11
-8 17 -4 5 4 -1 18 -16 33 -17 18 -24 34 -20 44 8 22 38 22 55 0z"/>
<path d="M1887 1034 c-4 -4 -7 -23 -7 -41 0 -38 23 -42 28 -5 4 25 -11 56 -21
46z"/>
<path d="M1710 796 c0 -20 5 -36 10 -36 6 0 10 11 10 25 0 14 0 28 1 32 0 4
-4 9 -10 11 -7 2 -11 -11 -11 -32z"/>
<path d="M1790 1045 c0 -17 5 -25 13 -22 6 2 12 12 12 22 0 10 -6 20 -12 23
-8 2 -13 -6 -13 -23z"/>
<path d="M2175 1002 c16 -16 35 -28 42 -25 17 7 -14 38 -47 48 -25 7 -25 7 5
-23z"/>
<path d="M2574 953 c3 -6 2 -14 -4 -18 -14 -8 -33 -45 -23 -45 4 0 16 12 27
26 14 21 16 28 6 37 -10 9 -11 9 -6 0z"/>
<path d="M2478 883 c-27 -2 -48 -8 -48 -13 0 -5 -6 -8 -12 -6 -7 1 -10 1 -5
-1 4 -3 5 -9 2 -14 -3 -5 -1 -17 5 -28 9 -18 1 -27 -65 -76 -42 -31 -81 -53
-87 -49 -6 4 -8 3 -5 -2 9 -16 -86 -74 -101 -62 -9 8 -11 7 -7 -3 3 -9 -6 -21
-24 -32 -34 -20 -45 -22 -35 -5 4 7 3 8 -5 4 -6 -4 -9 -11 -7 -14 7 -11 -153
-94 -166 -86 -6 4 -8 3 -5 -3 6 -10 -88 -61 -198 -108 -22 -9 -60 -26 -85 -37
-44 -20 -65 -29 -105 -44 -19 -7 -19 -7 -1 -11 10 -3 23 0 29 6 6 6 21 11 34
11 13 0 23 5 23 10 0 6 4 10 10 10 21 0 307 136 400 190 124 72 161 91 172 84
6 -4 8 -2 5 3 -4 6 32 36 79 67 67 45 89 55 99 46 17 -14 35 -5 35 16 0 8 -5
12 -10 9 -6 -4 -7 -11 -4 -17 4 -6 1 -9 -6 -6 -22 7 -23 26 -2 32 11 4 45 30
77 59 49 46 61 53 88 49 l31 -5 -63 -58 c-35 -33 -97 -84 -137 -115 -41 -30
-74 -60 -74 -66 0 -6 -3 -8 -6 -5 -7 6 -37 -7 -58 -25 -22 -18 -164 -107 -206
-128 -28 -14 -39 -25 -33 -31 10 -10 83 24 123 55 8 7 28 18 43 24 15 7 26 16
23 21 -3 5 2 8 11 7 10 0 18 4 18 11 0 6 4 15 9 20 5 5 6 3 2 -4 -4 -7 -5 -13
-2 -13 8 0 95 60 101 71 4 5 11 9 16 9 6 0 -4 -14 -20 -32 -19 -20 -26 -35
-19 -39 10 -7 3 -13 -36 -34 -11 -5 -22 -17 -24 -25 -5 -13 -3 -13 14 0 18 14
18 14 5 -2 -7 -10 -18 -15 -24 -11 -6 4 -8 0 -4 -10 4 -11 -1 -18 -14 -22 -20
-7 -22 -26 -3 -31 11 -4 98 112 131 176 17 33 50 68 107 114 46 37 93 78 104
91 27 30 28 61 5 68 -10 2 -25 7 -33 9 -8 2 -36 3 -62 1z m-5 -45 c-33 -34
-43 -35 -43 -4 0 26 12 35 47 33 22 -1 22 -2 -4 -29z"/>
<path d="M1433 684 c7 -8 -17 -34 -32 -34 -6 0 -9 -21 -7 -50 2 -29 -2 -51 -8
-54 -7 -3 -6 -5 2 -5 7 -1 10 -5 7 -11 -7 -12 13 -52 32 -63 7 -5 11 -12 8
-17 -3 -4 13 -4 35 1 28 6 48 6 63 -2 20 -11 21 -11 9 4 -12 15 -10 16 20 11
73 -11 122 -13 108 -4 -13 8 -13 10 1 10 21 0 46 29 52 60 4 25 4 24 6 -2 0
-16 5 -28 9 -28 10 0 -6 96 -19 123 -6 10 -7 23 -3 30 4 7 4 9 -1 5 -4 -4 -24
0 -44 8 -46 18 -151 24 -173 10 -13 -8 -23 -8 -38 2 -21 13 -38 16 -27 6z m86
-20 c-12 -14 -9 -15 25 -10 34 6 37 4 26 -9 -7 -8 -16 -12 -21 -9 -5 3 -8 0
-7 -8 2 -8 -10 -14 -34 -16 -21 -2 -38 -8 -38 -13 0 -5 12 -8 28 -7 24 3 27 0
28 -27 0 -16 4 -38 9 -49 17 -40 -82 -53 -109 -14 -8 12 -13 25 -10 29 6 10
40 7 50 -4 13 -12 44 -7 44 7 0 19 -26 40 -35 26 -3 -5 -18 -10 -34 -10 l-27
0 10 55 c10 55 11 55 41 49 22 -4 35 -1 44 10 8 9 16 16 18 16 3 0 -1 -7 -8
-16z m147 -13 c-5 -8 20 -25 34 -23 10 1 9 -78 0 -103 -9 -23 -61 -55 -89 -55
-5 0 -23 12 -40 26 -26 21 -31 33 -31 68 0 53 23 77 83 87 23 3 43 7 45 8 2 0
1 -3 -2 -8z"/>
<path d="M1588 608 c-28 -22 -31 -55 -9 -77 27 -27 66 -27 85 1 21 29 20 51
-2 71 -22 20 -52 22 -74 5z m72 -19 c0 -6 -5 -7 -12 -3 -7 5 -8 3 -2 -7 18
-30 13 -39 -25 -39 -29 0 -38 4 -38 18 0 9 3 22 8 27 10 13 69 17 69 4z"/>
<path d="M668 633 c18 -2 45 -2 60 0 15 2 0 4 -33 4 -33 0 -45 -2 -27 -4z"/>
<path d="M2555 603 c-50 -41 -203 -141 -292 -189 -46 -25 -83 -50 -83 -55 0
-14 3 -13 112 47 155 85 304 192 297 212 -2 6 -17 -1 -34 -15z"/>
<path d="M2530 514 c-147 -150 -533 -427 -606 -436 -23 -2 -29 -8 -29 -28 0
-31 44 -43 51 -13 3 10 55 49 117 88 223 140 537 399 526 433 -2 7 -27 -11
-59 -44z"/>
<path d="M1953 414 c-18 -9 -33 -23 -33 -30 0 -10 -6 -11 -26 -3 -15 5 -29 7
-32 4 -3 -3 0 -5 6 -5 22 0 12 -20 -10 -21 -22 0 -22 -1 -3 -9 19 -8 18 -9 -5
-11 -14 -1 -29 -3 -35 -3 -5 -1 -45 -18 -87 -39 -42 -20 -84 -37 -92 -37 -9 0
-16 -4 -16 -10 0 -5 -9 -10 -19 -10 -11 0 -23 -4 -26 -10 -3 -5 -24 -10 -45
-10 -42 0 -54 -9 -44 -33 9 -24 33 -28 52 -9 33 33 76 44 144 37 120 -13 303
31 404 97 73 48 99 74 84 83 -9 5 -11 4 -6 -3 5 -8 0 -12 -12 -12 -11 0 -25
-7 -33 -16 -7 -8 -20 -13 -29 -11 -9 2 -17 -2 -17 -9 0 -7 5 -10 10 -7 6 3 7
1 3 -6 -4 -6 -16 -9 -27 -6 -12 4 -21 1 -25 -9 -4 -9 -11 -15 -18 -14 -6 1
-30 -8 -53 -20 -30 -16 -43 -18 -46 -9 -3 9 -7 9 -18 1 -18 -14 -96 -31 -178
-38 -59 -6 -63 -5 -45 9 10 8 24 15 31 15 6 0 19 9 27 21 8 12 18 19 23 16 5
-3 22 0 38 8 94 42 131 59 135 65 3 3 22 14 43 24 20 9 35 21 32 27 -8 12 -14
11 -52 -7z"/>
<path d="M1424 286 c-9 -23 6 -38 31 -32 13 3 36 1 51 -4 20 -8 30 -8 38 1 8
8 7 10 -4 7 -8 -3 -22 3 -30 12 -22 25 -78 36 -86 16z"/>
</g>
</svg>
